<?xml version="1.0" standalone="no"?>
<!DOCTYPE svg PUBLIC "-//W3C//DTD SVG 1.1//EN" "http://www.w3.org/Graphics/SVG/1.1/DTD/svg11.dtd" >
<svg xmlns="http://www.w3.org/2000/svg">
  <metadata>Created by iconfont</metadata>
  <defs>
  <font id="icon" horiz-adv-x="1024">
    <font-face
      font-family="icon"
      font-weight="400"
      font-stretch="normal"
      units-per-em="1024"
      ascent="896"
      descent="-128"
    />
      <missing-glyph />
      
      <glyph glyph-name="search" unicode="&#58939;" d="M1018.496-78.848l-225.536 225.536c69.44 79.552 111.744 183.296 111.744 296.896C904.704 693.056 701.888 896 452.416 896S0 693.056 0 443.584c0-249.408 202.944-452.288 452.416-452.288 116.928 0 223.36 44.928 303.808 118.08l225.344-225.344c5.12-5.12 11.84-7.68 18.496-7.68 6.656 0 13.504 2.56 18.496 7.68C1028.8-105.728 1028.8-89.152 1018.496-78.848M452.416 43.712c-220.544 0-400 179.392-400 399.936 0 220.544 179.456 400 400 400 220.48 0 400-179.456 400-400C852.352 223.04 672.896 43.712 452.416 43.712"  horiz-adv-x="1027" />
      
      <glyph glyph-name="quanxianguanli" unicode="&#58883;" d="M152.683789 682.738526v-236.058947a431.157895 431.157895 0 0 1 177.583158-348.698947L512-34.223158l181.733053 132.20379a431.157895 431.157895 0 0 1 177.583158 348.698947v236.058947L512 819.253895 152.683789 682.738526zM80.842105 732.321684L512 896l431.157895-163.84v-285.588211a503.107368 503.107368 0 0 0-207.171369-406.689684L512-123.149474l-223.986526 162.869895A503.053474 503.053474 0 0 0 80.842105 446.679579v285.642105zM512 350.585263a143.683368 143.683368 0 1 0 0 287.420632 143.683368 143.683368 0 0 0 0-287.420632z m0 71.895579A71.841684 71.841684 0 1 1 512 566.164211a71.841684 71.841684 0 0 1 0-143.683369zM512 386.533053c23.983158 0 35.947789-11.964632 35.947789-35.94779v-184.266105c0-23.929263-11.964632-35.893895-35.947789-35.893895-23.929263 0-35.947789 11.964632-35.947789 35.893895v184.32c0 23.929263 12.018526 35.893895 35.947789 35.893895zM619.789474 257.832421c0-23.983158-11.964632-35.947789-35.94779-35.947789H515.610947c-23.983158 0-35.947789 11.964632-35.947789 35.893894 0 23.983158 11.964632 35.947789 35.947789 35.94779h68.230737c23.983158 0 35.947789-11.964632 35.94779-35.893895z"  horiz-adv-x="1024" />
      
      <glyph glyph-name="users" unicode="&#59056;" d="M892.250862 49.253006L400.087653 49.253006c-37.007869 0-67.112514 30.105668-67.112514 67.113537 0 2.140757 0.480954 53.219085 41.334407 103.553471 23.50739 28.925796 55.534827 51.820226 95.208409 68.1174 47.931662 19.706831 107.399055 29.624714 176.653349 29.624714 69.251224 0 128.674615-10.005888 176.650279-29.624714 39.674605-16.298198 71.704089-39.192627 95.210455-68.1174 40.899502-50.334385 41.335431-101.413737 41.335431-103.553471C959.365422 79.358675 929.257707 49.253006 892.250862 49.253006zM377.716132 116.23556c0.044002-12.278651 10.092869-22.239514 22.370497-22.239514l492.163209 0c12.322653 0 22.324448 9.960863 22.372543 22.239514-0.048095 1.571798-1.444908 40.066531-33.033347 77.556377-43.606147 51.820226-125.009132 79.128175-235.420801 79.128175-110.412692 0-191.814654-27.39493-235.377822-79.128175C379.157971 156.21511 377.760135 117.807359 377.716132 116.23556zM646.169257 362.449171c-98.704023 0-178.969091 80.264045-178.969091 178.968068 0 98.704023 80.265068 178.969091 178.969091 178.969091 98.700953 0 178.970114-80.265068 178.970114-178.969091C825.139372 442.713216 744.87021 362.449171 646.169257 362.449171zM646.169257 675.64329c-74.016761 0-134.227074-60.228733-134.227074-134.226051s60.210313-134.227074 134.227074-134.227074 134.227074 60.23078 134.227074 134.227074S720.186018 675.64329 646.169257 675.64329zM265.861602 49.253006l-134.227074 0c-37.007869 0-67.112514 30.105668-67.112514 67.113537 0 1.660826 0.349971 41.46539 29.667693 80.527035 16.909112 22.588461 40.023552 40.460504 68.598354 53.175083 34.168194 15.205307 76.376505 22.895453 125.488039 22.895453 8.039093 0 15.904225-0.217964 23.594371-0.611937 12.32163-0.699941 21.759583-11.186783 21.147646-23.551392-0.611937-12.364609-11.18576-21.802562-23.50739-21.191648-6.904247 0.393973-13.982456 0.568958-21.191648 0.568958-174.205601 0-178.838108-106.438171-178.969091-111.98756 0.042979-12.234649 10.093892-22.239514 22.370497-22.239514l134.227074 0c12.365632 0 22.370497-10.005888 22.370497-22.37152 0-12.364609-10.004865-22.369473-22.370497-22.369473L265.861602 49.253006zM288.231075 317.706131c-73.973782 0-134.226051 60.210313-134.226051 134.227074 0 73.994248 60.252269 134.227074 134.226051 134.227074 73.973782 0 134.226051-60.232826 134.226051-134.227074C422.458149 377.916445 362.20588 317.706131 288.231075 317.706131zM288.231075 541.417239c-49.329499 0-89.484034-40.134069-89.484034-89.485057 0-49.353035 40.154535-89.483011 89.484034-89.483011 49.330522 0 89.485057 40.129976 89.485057 89.483011C377.716132 501.28317 337.561597 541.417239 288.231075 541.417239z"  horiz-adv-x="1024" />
      
      <glyph glyph-name="mudedi" unicode="&#58920;" d="M512-97.92c-6.88 0-13.76 2.496-19.2 7.456-15.392 14.08-377.184 347.616-377.184 560.576 0 218.24 177.824 395.776 396.352 395.776 218.56 0 396.384-177.536 396.384-395.776 0-212.96-361.792-546.496-377.184-560.576C525.728-95.424 518.88-97.92 512-97.92zM512 809.056c-187.2 0-339.52-152.032-339.52-338.944 0-146.848 229.344-395.744 339.52-500.704 110.176 104.96 339.488 353.856 339.488 500.704C851.488 657.024 699.2 809.056 512 809.056zM512 328.096c-91.456 0-165.888 74.336-165.888 165.696 0 91.36 74.432 165.696 165.888 165.696 91.488 0 165.952-74.336 165.952-165.696C677.92 402.432 603.488 328.096 512 328.096zM512 602.656c-60.128 0-109.056-48.832-109.056-108.864 0-60 48.928-108.832 109.056-108.832 60.16 0 109.056 48.832 109.056 108.832C621.056 553.824 572.16 602.656 512 602.656z"  horiz-adv-x="1024" />
      
      <glyph glyph-name="user" unicode="&#58917;" d="M914.286-128v236.983c-1.233 87.117-72.143 157.264-159.436 157.264-0.52 0-1.039-0.002-1.557-0.007l-482.664 0.001c-0.439 0.004-0.958 0.007-1.478 0.007-87.293 0-158.203-70.147-159.435-157.148l-0.001-237.099M243.566 633.417c0-0 0-0 0-0 0-145.021 120.182-262.583 268.434-262.583 148.252 0 268.434 117.562 268.434 262.583 0 0 0 0 0 0 0 145.021-120.182 262.583-268.434 262.583-148.252 0-268.434-117.562-268.434-262.583z"  horiz-adv-x="1024" />
      
      <glyph glyph-name="jiekou" unicode="&#59028;" d="M64 672.004655h168.001164v-47.997673c0-26.428509 18.878836-47.997673 41.984-47.997673h140.036654c23.095855 0 41.984 21.569164 41.984 47.997673v47.997673h504.003491a32.004655 32.004655 0 0 1 0 64.009309H455.996509V784.011636c0 26.428509-18.878836 47.997673-41.984 47.997673H273.985164c-23.095855 0-41.984-21.569164-41.984-47.997673v-47.997672H64a32.004655 32.004655 0 0 1 0-64.009309zM288.004655 768h111.997672V640H288.004655V768zM960 416.004655H791.998836v47.997672c0 26.372655-18.878836 47.997673-41.984 47.997673H609.978182c-23.095855 0-41.984-21.634327-41.984-47.997673v-47.997672H64a32.004655 32.004655 0 0 1 0-64.00931h504.003491v-47.997672c0-26.363345 18.878836-47.997673 41.984-47.997673h140.036654c23.095855 0 41.984 21.634327 41.984 47.997673v47.997672h168.001164a32.004655 32.004655 0 1 1-0.009309 64.00931zM735.995345 320H623.997673v128h111.997672v-128zM960 95.706764v0.288581H455.996509v47.997673c0 26.363345-18.878836 47.997673-41.984 47.997673H274.050327c-23.105164 0-41.984-21.634327-41.984-47.997673v-47.997673H64v-0.288581a32.004655 32.004655 0 0 1 0-64.009309c0.986764 0 1.917673 0.195491 2.885818 0.288581h165.115346v-47.997672c0-26.363345 18.878836-47.997673 41.984-47.997673h140.036654c23.095855 0 41.984 21.634327 41.984 47.997673v47.997672h501.108364c0.968145-0.093091 1.899055-0.288582 2.895127-0.288581a32.004655 32.004655 0 1 1-0.009309 64.009309zM400.002327 0H288.004655V128h111.997672v-128z"  horiz-adv-x="1024" />
      
      <glyph glyph-name="zuhu" unicode="&#58961;" d="M293.36 164.625h437.28v-37.326H293.36zM293.36 53.625h437.28v-37.326H293.36zM720.572 302.14099999999996c-8.958 0-17.021-10.048-17.021-21.214 0-11.165 7.165-21.219 17.021-21.219 134.386 0 208.746-151.854 208.746-255.701 0-49.127-20.605-55.829-39.419-55.829H142.71c-17.918 0-39.42 5.582-39.42 55.829 0 104.96 74.36 255.701 208.747 255.701 8.959 0 17.021 10.054 17.021 21.219 0 11.166-7.166 21.214-17.021 21.214-156.785 0-243.688-176.424-243.688-298.134 0-63.642 26.877-99.375 74.36-99.375h747.189c47.48 0 74.358 36.847 74.358 99.375-0.444 121.71-87.35 298.134-243.684 298.134z m-209.398-22.342c146.347 0 266.354 130.738 266.354 292.696 0 161.959-120.008 292.695-266.354 292.695S245.311 734.454 245.311 572.495c0-161.958 119.516-292.696 265.863-292.696z m0 547.342c125.862 0 228.305-114.153 228.305-254.646S637.036 317.84900000000005 511.174 317.84900000000005c-125.858 0-227.815 114.154-227.815 254.646S385.315 827.141 511.174 827.141z"  horiz-adv-x="1024" />
      
      <glyph glyph-name="qiabao" unicode="&#58926;" d="M799.661 750.572H226.822c-88.603 0-160.694-72.087-160.694-160.694v-415.902c0-88.608 72.091-160.694 160.694-160.694h572.839c88.603 0 160.694 72.086 160.694 160.694V589.878c0 88.608-72.091 160.694-160.694 160.694zM906.79 173.976c0-59.07-48.055-107.129-107.129-107.129H226.822c-59.075 0-107.129 48.059-107.129 107.129V589.878c0 59.07 48.055 107.129 107.129 107.129h572.839c59.075 0 107.129-48.059 107.129-107.129v-415.902zM812.965 637.493H223.936c-14.795 0-26.782-11.992-26.782-26.782s11.987-26.782 26.782-26.782h589.029c14.795 0 26.782 11.992 26.782 26.782s-11.988 26.782-26.782 26.782zM812.965 535.886H223.936c-14.795 0-26.782-11.992-26.782-26.782s11.987-26.782 26.782-26.782h589.029c14.795 0 26.782 11.992 26.782 26.782s-11.988 26.782-26.782 26.782z"  horiz-adv-x="1024" />
      
      <glyph glyph-name="zidian" unicode="&#58976;" d="M250 640h-52c-3.3 0-6-2.7-6-6v-498.2c0-3.3 2.7-6 6-6h52c3.3 0 6 2.7 6 6V634c0 3.4-2.6 6-6 6zM448.1 179.6v-45.3c0-3.3-2.7-6-6-6h-52c-3.3 0-6 2.7-6 6V345.9c0 3.3 2.7 6 6 6h52.4c3.3 0 6-2.7 6-6v-46.4c0-6.6 5.4-12 12-12h487.2c6.6 0 12 5.4 12 12V467.8c0 6.6-5.4 12-12 12H460.5c-6.6 0-12-5.4-12-12v-46c0-3.3-2.7-6-6-6h-52.4c-3.3 0-6 2.7-6 6V634.1c0 3.3 2.7 6 6 6h52c3.3 0 6-2.7 6-6v-46.4c0-6.6 5.4-12 12-12h487.2c6.6 0 12 5.4 12 12V756.1c0 6.6-5.4 12-12 12H460.1c-6.6 0-12-5.4-12-12v-46c0-3.3-2.7-6-6-6h-52c-3.3 0-6 2.7-6 6V756c0 6.6-5.4 12-12 12H262c-3.3 0-6 2.7-6 6V826.1c0 3.3-2.7 6-6 6h-52c-3.3 0-6-2.7-6-6V774c0-3.3-2.7-6-6-6H76.2c-6.6 0-12-5.4-12-12v-743.6c0-6.6 5.4-12 12-12H186c3.3 0 6-2.7 6-6v-51.9c0-3.3 2.7-6 6-6h52c3.3 0 6 2.7 6 6v51.9c0 3.3 2.7 6 6 6h110c6.6 0 12 5.4 12 12v45.9c0 3.3 2.7 6 6 6h52c3.3 0 6-2.7 6-6v-47.1c0-6.6 5.4-12 12-12h488.3c6.6 0 12 5.4 12 12V179.6c0 6.6-5.4 12-12 12H460.1c-6.6 0-12-5.4-12-12z m70.4 236.2h371.2c3.3 0 6-2.7 6-6v-52.3c0-3.3-2.7-6-6-6H518.5c-3.3 0-6 2.7-6 6v52.3c0 3.4 2.7 6 6 6z m-0.4 288.3h371.2c3.3 0 6-2.7 6-6v-52.3c0-3.3-2.7-6-6-6H518.1c-3.3 0-6 2.7-6 6v52.3c0 3.3 2.7 6 6 6z m-204-639.7H134.2c-3.3 0-6 2.7-6 6V698c0 3.3 2.7 6 6 6h179.9c3.3 0 6-2.7 6-6v-627.6c0-3.4-2.7-6-6-6z m576.3-1.2H518.1c-3.3 0-6 2.7-6 6v52.3c0 3.3 2.7 6 6 6h372.3c3.3 0 6-2.7 6-6v-52.3c0-3.3-2.7-6-6-6z"  horiz-adv-x="1024" />
      
      <glyph glyph-name="list" unicode="&#58910;" d="M686.762667 790.152533H192a32.017067 32.017067 0 0 1-32.017067-31.982933V0c0-17.681067 14.336-32.017067 32.017067-32.017067h684.305067c17.681067 0 32.017067 14.336 32.017066 32.017067V568.6272h-115.712a105.847467 105.847467 0 0 0-105.813333 105.813333V790.186667z m64-7.2704V674.474667c0-23.108267 18.773333-41.847467 41.847466-41.847467h104.891734l-144.145067 147.8656a32.017067 32.017067 0 0 1-2.594133 2.389333zM192 854.152533H730.453333c25.873067 0 50.653867-10.4448 68.7104-29.013333l145.885867-149.6064c17.476267-17.92 27.272533-41.984 27.272533-67.003733V0a95.982933 95.982933 0 0 0-96.017066-96.017067H192a95.982933 95.982933 0 0 0-96.017067 96.017067V758.1696a95.982933 95.982933 0 0 0 96.017067 95.982933z m83.694933-433.220266a31.982933 31.982933 0 1 0 0 64H792.576a32.017067 32.017067 0 0 0 0-64H275.694933z m0-221.525334a31.982933 31.982933 0 1 0 0 63.965867h334.336a32.017067 32.017067 0 0 0 0-64H275.694933z"  horiz-adv-x="1024" />
      
      <glyph glyph-name="zujianliebiao" unicode="&#58927;" d="M454.062924 744.856089a159.120951 159.120951 0 0 1 0-24.350964h-251.906519a20.99221 20.99221 0 0 1-20.99221-20.99221v-251.906519a125.95326 125.95326 0 0 1-21.831898 0 151.563756 151.563756 0 1 1 0-302.707667 125.95326 125.95326 0 0 1 21.831898 0v-251.906519a20.99221 20.99221 0 0 1 20.99221-20.99221h280.875769a20.99221 20.99221 0 0 1 17.633456 9.656417 20.572366 20.572366 0 0 1 0 19.732677 112.938089 112.938089 0 0 0-9.236572 44.923329 109.579336 109.579336 0 0 0 218.738827 0 110.838868 110.838868 0 0 0-9.656416-44.923329 20.572366 20.572366 0 0 1 0-19.732677 20.99221 20.99221 0 0 1 17.633456-9.656417h280.875769a20.99221 20.99221 0 0 1 20.99221 20.99221v285.913899a20.152522 20.152522 0 0 1-9.236573 17.213612 19.732677 19.732677 0 0 1-19.732677 2.099221 117.136531 117.136531 0 0 0-41.98442-8.396884 109.579336 109.579336 0 1 0 0 218.738828 103.281673 103.281673 0 0 0 41.98442-8.816729 20.572366 20.572366 0 0 1 19.732677 0 20.152522 20.152522 0 0 1 9.656417 17.633457V699.512915a20.99221 20.99221 0 0 1-20.99221 20.99221h-251.906519a159.120951 159.120951 0 0 1 2.099221 24.350964 151.563756 151.563756 0 0 1-302.707667 0z m-167.937679-109.99918h95.304633a21.412054 21.412054 0 0 0 20.99221-20.99221 20.99221 20.99221 0 0 0-20.99221-20.99221H304.59839V518.140221a20.99221 20.99221 0 0 0-20.99221-20.99221A20.99221 20.99221 0 0 0 262.61397 518.140221V613.864699a20.99221 20.99221 0 0 0 20.99221 20.99221z"  horiz-adv-x="1026" />
      
      <glyph glyph-name="xitongshezhi" unicode="&#58983;" d="M511.3 539.7c-86.1 0-156.1-70-156.1-156.1s70-156.1 156.1-156.1 156.1 70 156.1 156.1-70 156.1-156.1 156.1z m0-264.2c-59.6 0-108.1 48.5-108.1 108.1 0 59.6 48.5 108.1 108.1 108.1 59.6 0 108.1-48.5 108.1-108.1 0-59.6-48.5-108.1-108.1-108.1zM889.7 316.3c-29.2 10-48.9 37.5-48.9 68.4 0 30.9 19.6 58.4 48.8 68.4 23.5 8 36.2 32.8 29 56.3-7.9 25.9-18.4 51.2-31.2 75.2-11.5 21.7-38 30.1-60.3 19.3-27.7-13.6-61-8-82.9 13.8-21.8 21.8-27.4 55.1-13.8 82.8 10.9 22.2 2.4 48.7-19.3 60.2-23.9 12.7-49.2 23.2-75.2 31.1-23.5 7.2-48.2-5.5-56.3-29-10-29.2-37.5-48.8-68.4-48.8-30.9 0-58.3 19.6-68.4 48.8-8 23.4-32.8 36.1-56.3 29-25.9-7.9-51.2-18.4-75.2-31.1-21.7-11.5-30.2-38-19.3-60.2 13.5-27.7 8-61-13.8-82.8-21.8-21.8-55.1-27.4-82.9-13.8-22.2 10.9-48.7 2.4-60.3-19.3-12.8-23.9-23.2-49.2-31.2-75.2-7.2-23.5 5.5-48.3 29-56.3 29.2-10 48.8-37.5 48.8-68.4 0-30.9-19.7-58.4-48.9-68.4-23.5-8-36.2-32.7-29-56.3 7.9-26 18.4-51.3 31.1-75.2 11.6-21.7 38.1-30.2 60.3-19.3 27.8 13.6 61.1 8.1 83-13.8s27.4-55.2 13.8-83c-10.9-22.3-2.5-48.8 19.2-60.3 24-12.8 49.3-23.2 75.2-31.2 4.4-1.4 8.9-2 13.3-2 19 0 36.5 12 43 31.1 10 29.3 37.5 49 68.4 49 31 0 58.5-19.7 68.4-49 6.5-19.1 24-31.1 43-31.1 4.4 0 8.9 0.6 13.3 2 26 7.9 51.3 18.4 75.2 31.2 21.7 11.6 30.2 38.1 19.2 60.3-13.6 27.8-8.1 61.1 13.8 83s55.2 27.4 83 13.8c22.3-10.9 48.8-2.5 60.3 19.3 12.7 24 23.2 49.3 31.1 75.2 7.6 23.5-5.2 48.3-28.6 56.3z m-43.3-106.7c-45.8 21.4-100.2 12-136-23.9-35.9-35.9-45.3-90.3-23.9-136.1-19.8-10.4-40.6-19-62-25.7-17.2 47.6-62.4 79.4-113.1 79.4-50.8 0-95.9-31.8-113.1-79.4-21.4 6.7-42.2 15.3-62 25.7 21.5 45.8 12 100.2-23.9 136.1-35.9 35.9-90.3 45.3-136 23.9-10.4 19.8-19 40.7-25.7 62C198.2 288.8 230 334 230 384.7c0 50.7-31.7 95.8-79.2 113.1 6.7 21.3 15.3 42.2 25.7 62 45.7-21.3 100.1-11.9 135.9 24 35.8 35.8 45.3 90.1 24 135.8 19.8 10.4 40.6 19 62 25.7 17.3-47.4 62.4-79.1 113-79.1s95.8 31.7 113 79.1c21.3-6.7 42.2-15.3 62-25.7-21.3-45.7-11.8-100.1 24-135.8 23.1-23.1 53.9-35.2 85.1-35.2 17.2 0 34.6 3.7 50.8 11.3 10.4-19.8 19-40.6 25.7-62-47.5-17.2-79.2-62.4-79.2-113.1 0-50.7 31.8-95.9 79.3-113.1-6.7-21.5-15.4-42.3-25.7-62.1z"  horiz-adv-x="1024" />
      
      <glyph glyph-name="xinjian" unicode="&#58904;" d="M62.58 683.7v-599.17c0-11.27 9.14-20.41 20.41-20.41h856.06c11.27 0 20.41 9.14 20.41 20.41V683.7c0 11.27-9.14 20.41-20.41 20.41H82.99c-11.27 0-20.41-9.14-20.41-20.41zM840 640.11l-328-254.6-328 254.6h656z m-713.42-512V603.66l372.9-289.45a20.414 20.414 0 0 1 25.04 0l370.95 287.94v-474.03H126.58z"  horiz-adv-x="1024" />
      
      <glyph glyph-name="responsibility" unicode="&#58880;" d="M831.230637-95.019133H217.414209c-22.084368 0-61.952949 10.504665-61.952949 61.369357V90.317553H124.162274a30.07037 30.07037 0 1 0 0 60.07931h31.298986v123.199444H124.162274a30.101086 30.101086 0 1 0 0 60.07931h31.298986v124.151621H124.807297a30.039655 30.039655 0 1 0 0 60.110026h30.653963V641.351716H121.92005a30.039655 30.039655 0 1 0 0 60.110025h33.54121V823.524716c0 30.684678 19.227836 63.304426 63.396573 63.304426h612.372804c50.895407 0 92.146181-41.220058 92.146181-92.08475v-797.70949a92.08475 92.08475 0 0 0-92.146181-92.054035zM217.045625 825.398355a10.996111 10.996111 0 0 1-0.153577-1.873639v-122.062975h29.793931a30.07037 30.07037 0 1 0 0-60.110025h-29.793931v-123.414452h32.681178a30.039655 30.039655 0 1 0 0-60.110026H216.892048v-124.151621H248.897488a30.07037 30.07037 0 1 0 0-60.07931H216.892048v-123.199444H248.897488a30.101086 30.101086 0 1 0 0-60.07931H216.892048v-123.967329h491.477014V825.459785H218.857833a27.797431 27.797431 0 0 1-1.812208-0.06143z m644.900405-30.653963a30.715394 30.715394 0 0 1-30.715393 30.715393h-61.430788v-859.109561h61.430788a30.715394 30.715394 0 0 1 30.715393 30.684678V794.744392z"  horiz-adv-x="1024" />
      
      <glyph glyph-name="xiaoxi" unicode="&#58935;" d="M885.28 236.48a48 48 0 0 0-31.2 39.84V445.28c0 160-153.92 266.08-220 299.36a131.2 131.2 0 0 1-37.76 72.96A118.88 118.88 0 0 1 513.44 848h-2.88a118.72 118.72 0 0 1-82.88-30.4 132.64 132.64 0 0 1-37.92-72.96c-65.92-33.28-219.84-139.36-219.84-299.36v-168.32a48 48 0 0 0-31.2-40.48c-60.64-25.92-66.56-75.04-52.16-112 7.2-18.24 23.2-36 132.16-36h92.48C316.96-5.44 404.16-80 510.56-80S704-5.44 709.92 88.16h96c108.96 0 124.96 17.76 132.16 36 13.76 37.28 7.84 86.4-52.8 112.32zM512-17.92c-71.36 0-129.92 48-136 108.16h272c-6.08-60.48-64.64-108.16-136-108.16zM808.64 148.8H215.36A444.16 444.16 0 0 0 144 153.28c0 9.44 5.44 16 19.2 21.6a113.44 113.44 0 0 1 72 99.36V445.12c0 144 167.68 240 198.4 251.2l21.6 8v21.76c0 6.4 2.88 61.28 55.36 61.28h2.4c52.64 0 55.68-54.88 55.84-60.96V704l21.6-8.16c30.72-11.68 198.4-107.84 198.4-251.2v-170.4a113.12 113.12 0 0 1 72-99.36c13.76-5.92 19.68-12.16 19.2-21.6a444.16 444.16 0 0 0-71.36-4.48z"  horiz-adv-x="1024" />
      
      <glyph glyph-name="shijian" unicode="&#58881;" d="M512 746.688a362.688 362.688 0 1 0 0-725.376A362.688 362.688 0 0 0 512 746.688z m0-64a298.688 298.688 0 1 1 0-597.376 298.688 298.688 0 0 1 0 597.376z m32-78.528v-201.088h140.8v-64H512a32 32 0 0 0-32 32V604.16h64z"  horiz-adv-x="1024" />
      
      <glyph glyph-name="bumen" unicode="&#58952;" d="M853.333333 298.666667h-106.666666L640 482.133333c25.6 12.8 42.666667 42.666667 42.666667 72.533334V725.333333c0 46.933333-38.4 85.333333-85.333334 85.333334h-170.666666c-46.933333 0-85.333333-38.4-85.333334-85.333334v-170.666666c0-29.866667 17.066667-55.466667 42.666667-72.533334L277.333333 298.666667H170.666667c-46.933333 0-85.333333-38.4-85.333334-85.333334v-170.666666c0-46.933333 38.4-85.333333 85.333334-85.333334h170.666666c46.933333 0 85.333333 38.4 85.333334 85.333334v55.466666h170.666666V42.666667c0-46.933333 38.4-85.333333 85.333334-85.333334h170.666666c46.933333 0 85.333333 38.4 85.333334 85.333334v170.666666c0 46.933333-38.4 85.333333-85.333334 85.333334zM413.013333 170.666667v49.792c0 41.472-31.872 78.805333-71.68 82.944L432.938667 469.333333h115.456L640 303.402667c-39.808-4.138667-71.68-37.333333-71.68-82.944V170.666667H413.013333z"  horiz-adv-x="1024" />
      
      <glyph glyph-name="yonghuguanli" unicode="&#59202;" d="M849.92-40.96h-84.48v85.12a127.168 127.168 0 0 1-126.72 127.616H385.344a127.168 127.168 0 0 1-126.72-127.616v-85.12h-84.48v85.12a211.968 211.968 0 0 0 211.2 212.736h253.44a211.968 211.968 0 0 0 211.2-212.736zM512 341.952a255.296 255.296 0 1 0 253.44 255.232A254.336 254.336 0 0 0 512 341.952z m0 85.056a170.176 170.176 0 1 1-168.896 170.24A169.536 169.536 0 0 1 512 427.072z"  horiz-adv-x="1024" />
      
      <glyph glyph-name="taocan" unicode="&#65831;" d="M895.6928 512.8192m0-115.0464l0-275.8144q0-115.0464-115.0464-115.0464l-260.2496 0q-115.0464 0-115.0464 115.0464l0 275.8144q0 115.0464 115.0464 115.0464l260.2496 0q115.0464 0 115.0464-115.0464ZM770.816-22.3744h-506.88a153.088 153.088 0 0 0-153.0368 152.9344V636.4672a153.088 153.088 0 0 0 152.9344 152.9344h506.88a153.088 153.088 0 0 0 152.9344-152.9344v-67.4816a25.6 25.6 0 1 0-51.2 0V636.4672a101.8368 101.8368 0 0 1-101.7344 101.7344h-506.88a101.8368 101.8368 0 0 1-101.7344-101.7344v-505.9072a101.8368 101.8368 0 0 1 101.7344-101.7344h506.88a101.8368 101.8368 0 0 1 101.7344 101.7344v231.0656a25.6 25.6 0 1 0 51.2 0v-231.0656a153.088 153.088 0 0 0-152.832-152.9344zM517.4784 390.8096c-84.3776 0-161.28 54.3232-191.4368 135.2192a25.6 25.6 0 0 0 48.0256 17.8688 154.88 154.88 0 0 1 143.36-101.888 152.9344 152.9344 0 0 1 143.36 101.1712 25.6 25.6 0 1 0 47.9232-18.1248c-30.976-81.5616-105.984-134.2464-191.232-134.2464z"  horiz-adv-x="1024" />
      
      <glyph glyph-name="gongzuotai" unicode="&#58889;" d="M257 357.7l126.4 128.6 187.7-90.6c4.8-2.3 10.5-1.6 14.5 1.8l198.7 164.8c5.8 4.8 6.6 13.3 1.8 19.1-4.8 5.8-13.3 6.6-19.1 1.8L575 423.9 386.4 515c-5.2 2.5-11.5 1.4-15.6-2.7L237.7 376.7c-5.2-5.3-5.2-13.9 0.2-19.2 2.6-2.6 6.1-3.9 9.5-3.9 3.5 0.1 7 1.4 9.6 4.1zM804.1 86.5H219c-7.5 0-13.5-6.1-13.5-13.5s6.1-13.5 13.5-13.5h585.2c7.5 0 13.5 6.1 13.5 13.5s-6.1 13.5-13.6 13.5zM851.4 709H171.7c-20.2 0-36.6-16.4-36.6-36.6v-243.9c0-7.5 6.1-13.5 13.5-13.5s13.5 6.1 13.5 13.5V672.4c0 5.2 4.2 9.5 9.5 9.5h679.7c5.2 0 9.5-4.3 9.5-9.5v-445.3c0-5.2-4.2-9.5-9.5-9.5H171.7c-5.2 0-9.5 4.3-9.5 9.5v93.1 0.7c0 7.5-6.1 13.5-13.5 13.5s-13.5-6.1-13.5-13.5v-93.8c0-20.2 16.4-36.6 36.6-36.6h679.7c20.2 0 36.6 16.4 36.6 36.6V672.4c-0.2 20.2-16.5 36.6-36.7 36.6z"  horiz-adv-x="1024" />
      
    </font>
</defs>
</svg>
